<mxfile host="app.diagrams.net" modified="2023-07-28T17:16:33.252Z" agent="Mozilla/5.0 (Windows NT 10.0; Win64; x64) AppleWebKit/537.36 (KHTML, like Gecko) Chrome/115.0.0.0 Safari/537.36" etag="-f2PsFQLl_YMHuPx94CI" version="21.6.5" type="device">
  <diagram id="C5RBs43oDa-KdzZeNtuy" name="Page-1">
    <mxGraphModel dx="3754" dy="1148" grid="1" gridSize="10" guides="1" tooltips="1" connect="1" arrows="1" fold="1" page="1" pageScale="1" pageWidth="827" pageHeight="1169" math="0" shadow="0">
      <root>
        <mxCell id="WIyWlLk6GJQsqaUBKTNV-0" />
        <mxCell id="WIyWlLk6GJQsqaUBKTNV-1" parent="WIyWlLk6GJQsqaUBKTNV-0" />
        <mxCell id="D_m6g35PgsfcEyeFwmXf-0" value="Start" style="strokeWidth=2;html=1;shape=mxgraph.flowchart.start_1;whiteSpace=wrap;" parent="WIyWlLk6GJQsqaUBKTNV-1" vertex="1">
          <mxGeometry x="484" y="30" width="100" height="40" as="geometry" />
        </mxCell>
        <mxCell id="z75N_5129fjBr_-sa4g6-0" value="input:&lt;br&gt;cities, ways" style="shape=parallelogram;html=1;strokeWidth=2;perimeter=parallelogramPerimeter;whiteSpace=wrap;rounded=1;arcSize=12;size=0.23;" parent="WIyWlLk6GJQsqaUBKTNV-1" vertex="1">
          <mxGeometry x="474" y="100" width="120" height="40" as="geometry" />
        </mxCell>
        <mxCell id="z75N_5129fjBr_-sa4g6-1" value="" style="endArrow=classic;html=1;rounded=0;exitX=0.5;exitY=1;exitDx=0;exitDy=0;exitPerimeter=0;entryX=0.5;entryY=0;entryDx=0;entryDy=0;" parent="WIyWlLk6GJQsqaUBKTNV-1" source="D_m6g35PgsfcEyeFwmXf-0" target="z75N_5129fjBr_-sa4g6-0" edge="1">
          <mxGeometry width="50" height="50" relative="1" as="geometry">
            <mxPoint x="220" y="130" as="sourcePoint" />
            <mxPoint x="270" y="80" as="targetPoint" />
          </mxGeometry>
        </mxCell>
        <mxCell id="z75N_5129fjBr_-sa4g6-2" value="" style="endArrow=classic;html=1;rounded=0;exitX=0.5;exitY=1;exitDx=0;exitDy=0;entryX=0.5;entryY=0;entryDx=0;entryDy=0;entryPerimeter=0;" parent="WIyWlLk6GJQsqaUBKTNV-1" source="z75N_5129fjBr_-sa4g6-0" target="z75N_5129fjBr_-sa4g6-4" edge="1">
          <mxGeometry width="50" height="50" relative="1" as="geometry">
            <mxPoint x="500" y="260" as="sourcePoint" />
            <mxPoint x="534" y="180" as="targetPoint" />
          </mxGeometry>
        </mxCell>
        <mxCell id="z75N_5129fjBr_-sa4g6-4" value="city1" style="strokeWidth=2;html=1;shape=mxgraph.flowchart.decision;whiteSpace=wrap;" parent="WIyWlLk6GJQsqaUBKTNV-1" vertex="1">
          <mxGeometry x="484" y="160" width="100" height="40" as="geometry" />
        </mxCell>
        <mxCell id="z75N_5129fjBr_-sa4g6-5" value="city2" style="strokeWidth=2;html=1;shape=mxgraph.flowchart.decision;whiteSpace=wrap;" parent="WIyWlLk6GJQsqaUBKTNV-1" vertex="1">
          <mxGeometry x="484.5" y="230" width="100" height="40" as="geometry" />
        </mxCell>
        <mxCell id="z75N_5129fjBr_-sa4g6-7" value="addCity(city1)" style="rounded=1;whiteSpace=wrap;html=1;absoluteArcSize=1;arcSize=14;strokeWidth=2;" parent="WIyWlLk6GJQsqaUBKTNV-1" vertex="1">
          <mxGeometry x="340" y="160" width="100" height="40" as="geometry" />
        </mxCell>
        <mxCell id="z75N_5129fjBr_-sa4g6-8" value="addCity(city2)" style="rounded=1;whiteSpace=wrap;html=1;absoluteArcSize=1;arcSize=14;strokeWidth=2;" parent="WIyWlLk6GJQsqaUBKTNV-1" vertex="1">
          <mxGeometry x="630" y="230" width="100" height="40" as="geometry" />
        </mxCell>
        <mxCell id="z75N_5129fjBr_-sa4g6-9" value="" style="endArrow=classic;html=1;rounded=0;exitX=0.5;exitY=1;exitDx=0;exitDy=0;exitPerimeter=0;" parent="WIyWlLk6GJQsqaUBKTNV-1" source="z75N_5129fjBr_-sa4g6-4" target="z75N_5129fjBr_-sa4g6-5" edge="1">
          <mxGeometry width="50" height="50" relative="1" as="geometry">
            <mxPoint x="360" y="190" as="sourcePoint" />
            <mxPoint x="410" y="140" as="targetPoint" />
          </mxGeometry>
        </mxCell>
        <mxCell id="z75N_5129fjBr_-sa4g6-10" value="yes" style="edgeLabel;html=1;align=center;verticalAlign=middle;resizable=0;points=[];" parent="z75N_5129fjBr_-sa4g6-9" vertex="1" connectable="0">
          <mxGeometry x="-0.1942" y="1" relative="1" as="geometry">
            <mxPoint as="offset" />
          </mxGeometry>
        </mxCell>
        <mxCell id="z75N_5129fjBr_-sa4g6-11" value="" style="endArrow=classic;html=1;rounded=0;exitX=0;exitY=0.5;exitDx=0;exitDy=0;exitPerimeter=0;entryX=1;entryY=0.5;entryDx=0;entryDy=0;" parent="WIyWlLk6GJQsqaUBKTNV-1" source="z75N_5129fjBr_-sa4g6-4" target="z75N_5129fjBr_-sa4g6-7" edge="1">
          <mxGeometry width="50" height="50" relative="1" as="geometry">
            <mxPoint x="530" y="400" as="sourcePoint" />
            <mxPoint x="580" y="350" as="targetPoint" />
          </mxGeometry>
        </mxCell>
        <mxCell id="z75N_5129fjBr_-sa4g6-12" value="no" style="edgeLabel;html=1;align=center;verticalAlign=middle;resizable=0;points=[];" parent="z75N_5129fjBr_-sa4g6-11" vertex="1" connectable="0">
          <mxGeometry x="-0.0152" y="1" relative="1" as="geometry">
            <mxPoint as="offset" />
          </mxGeometry>
        </mxCell>
        <mxCell id="z75N_5129fjBr_-sa4g6-13" value="" style="endArrow=classic;html=1;rounded=0;exitX=1;exitY=0.5;exitDx=0;exitDy=0;exitPerimeter=0;entryX=0;entryY=0.5;entryDx=0;entryDy=0;" parent="WIyWlLk6GJQsqaUBKTNV-1" source="z75N_5129fjBr_-sa4g6-5" target="z75N_5129fjBr_-sa4g6-8" edge="1">
          <mxGeometry width="50" height="50" relative="1" as="geometry">
            <mxPoint x="390" y="420" as="sourcePoint" />
            <mxPoint x="440" y="370" as="targetPoint" />
          </mxGeometry>
        </mxCell>
        <mxCell id="z75N_5129fjBr_-sa4g6-14" value="no" style="edgeLabel;html=1;align=center;verticalAlign=middle;resizable=0;points=[];" parent="z75N_5129fjBr_-sa4g6-13" vertex="1" connectable="0">
          <mxGeometry x="-0.0037" relative="1" as="geometry">
            <mxPoint as="offset" />
          </mxGeometry>
        </mxCell>
        <mxCell id="z75N_5129fjBr_-sa4g6-15" value="addWay(city1, city2, way);&lt;br&gt;addWay(city2, city1, way);" style="rounded=1;whiteSpace=wrap;html=1;absoluteArcSize=1;arcSize=14;strokeWidth=2;" parent="WIyWlLk6GJQsqaUBKTNV-1" vertex="1">
          <mxGeometry x="456.5" y="330" width="156" height="50" as="geometry" />
        </mxCell>
        <mxCell id="z75N_5129fjBr_-sa4g6-16" value="" style="endArrow=classic;html=1;rounded=0;exitX=0.5;exitY=1;exitDx=0;exitDy=0;exitPerimeter=0;" parent="WIyWlLk6GJQsqaUBKTNV-1" source="z75N_5129fjBr_-sa4g6-5" target="z75N_5129fjBr_-sa4g6-15" edge="1">
          <mxGeometry width="50" height="50" relative="1" as="geometry">
            <mxPoint x="320" y="370" as="sourcePoint" />
            <mxPoint x="370" y="320" as="targetPoint" />
          </mxGeometry>
        </mxCell>
        <mxCell id="z75N_5129fjBr_-sa4g6-17" value="yes" style="edgeLabel;html=1;align=center;verticalAlign=middle;resizable=0;points=[];" parent="z75N_5129fjBr_-sa4g6-16" vertex="1" connectable="0">
          <mxGeometry x="-0.2544" y="-2" relative="1" as="geometry">
            <mxPoint x="2" y="-12" as="offset" />
          </mxGeometry>
        </mxCell>
        <mxCell id="z75N_5129fjBr_-sa4g6-18" value="" style="endArrow=classic;html=1;rounded=0;exitX=0.5;exitY=1;exitDx=0;exitDy=0;" parent="WIyWlLk6GJQsqaUBKTNV-1" source="z75N_5129fjBr_-sa4g6-7" edge="1">
          <mxGeometry width="50" height="50" relative="1" as="geometry">
            <mxPoint x="270" y="290" as="sourcePoint" />
            <mxPoint x="530" y="310" as="targetPoint" />
            <Array as="points">
              <mxPoint x="390" y="310" />
            </Array>
          </mxGeometry>
        </mxCell>
        <mxCell id="z75N_5129fjBr_-sa4g6-19" value="" style="endArrow=classic;html=1;rounded=0;exitX=0.5;exitY=1;exitDx=0;exitDy=0;" parent="WIyWlLk6GJQsqaUBKTNV-1" source="z75N_5129fjBr_-sa4g6-8" edge="1">
          <mxGeometry width="50" height="50" relative="1" as="geometry">
            <mxPoint x="720" y="430" as="sourcePoint" />
            <mxPoint x="540" y="310" as="targetPoint" />
            <Array as="points">
              <mxPoint x="680" y="310" />
            </Array>
          </mxGeometry>
        </mxCell>
        <mxCell id="z75N_5129fjBr_-sa4g6-22" value="i = 0; cities; 1" style="shape=hexagon;perimeter=hexagonPerimeter2;whiteSpace=wrap;html=1;fixedSize=1;fillColor=#d5e8d4;strokeColor=#82b366;" parent="WIyWlLk6GJQsqaUBKTNV-1" vertex="1">
          <mxGeometry x="1024" y="80" width="120" height="40" as="geometry" />
        </mxCell>
        <mxCell id="z75N_5129fjBr_-sa4g6-23" value="distances[i] = 0 | Infinity" style="rounded=1;whiteSpace=wrap;html=1;absoluteArcSize=1;arcSize=14;strokeWidth=2;fillColor=#d5e8d4;strokeColor=#82b366;" parent="WIyWlLk6GJQsqaUBKTNV-1" vertex="1">
          <mxGeometry x="1016.51" y="150" width="136" height="30" as="geometry" />
        </mxCell>
        <mxCell id="z75N_5129fjBr_-sa4g6-24" value="" style="endArrow=classic;html=1;rounded=0;exitX=0.5;exitY=1;exitDx=0;exitDy=0;entryX=0.5;entryY=0;entryDx=0;entryDy=0;fillColor=#d5e8d4;strokeColor=#82b366;" parent="WIyWlLk6GJQsqaUBKTNV-1" source="z75N_5129fjBr_-sa4g6-22" target="z75N_5129fjBr_-sa4g6-23" edge="1">
          <mxGeometry width="50" height="50" relative="1" as="geometry">
            <mxPoint x="900" y="120" as="sourcePoint" />
            <mxPoint x="950" y="70" as="targetPoint" />
          </mxGeometry>
        </mxCell>
        <mxCell id="z75N_5129fjBr_-sa4g6-25" value="" style="endArrow=classic;html=1;rounded=0;exitX=0;exitY=0.5;exitDx=0;exitDy=0;entryX=0;entryY=0.5;entryDx=0;entryDy=0;fillColor=#d5e8d4;strokeColor=#82b366;" parent="WIyWlLk6GJQsqaUBKTNV-1" source="z75N_5129fjBr_-sa4g6-23" target="z75N_5129fjBr_-sa4g6-22" edge="1">
          <mxGeometry width="50" height="50" relative="1" as="geometry">
            <mxPoint x="960" y="180" as="sourcePoint" />
            <mxPoint x="1010" y="130" as="targetPoint" />
            <Array as="points">
              <mxPoint x="1000" y="165" />
              <mxPoint x="1000" y="100" />
            </Array>
          </mxGeometry>
        </mxCell>
        <mxCell id="z75N_5129fjBr_-sa4g6-27" value="" style="endArrow=classic;html=1;rounded=0;exitX=1;exitY=0.5;exitDx=0;exitDy=0;entryX=0.5;entryY=0;entryDx=0;entryDy=0;fillColor=#d5e8d4;strokeColor=#82b366;" parent="WIyWlLk6GJQsqaUBKTNV-1" source="z75N_5129fjBr_-sa4g6-22" target="z75N_5129fjBr_-sa4g6-28" edge="1">
          <mxGeometry width="50" height="50" relative="1" as="geometry">
            <mxPoint x="1290" y="150" as="sourcePoint" />
            <mxPoint x="1090" y="220" as="targetPoint" />
            <Array as="points">
              <mxPoint x="1170" y="100" />
              <mxPoint x="1170" y="200" />
              <mxPoint x="1085" y="200" />
            </Array>
          </mxGeometry>
        </mxCell>
        <mxCell id="z75N_5129fjBr_-sa4g6-28" value="currentCity !== targetCity" style="shape=hexagon;perimeter=hexagonPerimeter2;whiteSpace=wrap;html=1;fixedSize=1;fillColor=#d5e8d4;strokeColor=#82b366;" parent="WIyWlLk6GJQsqaUBKTNV-1" vertex="1">
          <mxGeometry x="996.5" y="230" width="176" height="40" as="geometry" />
        </mxCell>
        <mxCell id="z75N_5129fjBr_-sa4g6-29" value="visited[currentCity] = true&lt;br&gt;getNeighbors(currentCity)" style="rounded=1;whiteSpace=wrap;html=1;absoluteArcSize=1;arcSize=14;strokeWidth=2;fillColor=#d5e8d4;strokeColor=#82b366;" parent="WIyWlLk6GJQsqaUBKTNV-1" vertex="1">
          <mxGeometry x="1012" y="300" width="145" height="40" as="geometry" />
        </mxCell>
        <mxCell id="z75N_5129fjBr_-sa4g6-31" value="dist...s[i] = dist;&lt;br&gt;prewCities[i].push(currentCity);" style="rounded=1;whiteSpace=wrap;html=1;absoluteArcSize=1;arcSize=14;strokeWidth=2;fillColor=#d5e8d4;strokeColor=#82b366;" parent="WIyWlLk6GJQsqaUBKTNV-1" vertex="1">
          <mxGeometry x="994" y="510" width="181" height="40" as="geometry" />
        </mxCell>
        <mxCell id="z75N_5129fjBr_-sa4g6-32" value="dist &amp;lt; dis...s[c...tCity] + way" style="strokeWidth=2;html=1;shape=mxgraph.flowchart.decision;whiteSpace=wrap;fillColor=#d5e8d4;strokeColor=#82b366;" parent="WIyWlLk6GJQsqaUBKTNV-1" vertex="1">
          <mxGeometry x="984.88" y="430" width="199.25" height="50" as="geometry" />
        </mxCell>
        <mxCell id="z75N_5129fjBr_-sa4g6-33" value="i = 0; neighbors; 1" style="shape=hexagon;perimeter=hexagonPerimeter2;whiteSpace=wrap;html=1;fixedSize=1;fillColor=#d5e8d4;strokeColor=#82b366;" parent="WIyWlLk6GJQsqaUBKTNV-1" vertex="1">
          <mxGeometry x="1024" y="360" width="120" height="40" as="geometry" />
        </mxCell>
        <mxCell id="z75N_5129fjBr_-sa4g6-34" value="" style="endArrow=classic;html=1;rounded=0;exitX=0.5;exitY=1;exitDx=0;exitDy=0;entryX=0.5;entryY=0;entryDx=0;entryDy=0;entryPerimeter=0;fillColor=#d5e8d4;strokeColor=#82b366;" parent="WIyWlLk6GJQsqaUBKTNV-1" source="z75N_5129fjBr_-sa4g6-33" target="z75N_5129fjBr_-sa4g6-32" edge="1">
          <mxGeometry width="50" height="50" relative="1" as="geometry">
            <mxPoint x="870" y="460" as="sourcePoint" />
            <mxPoint x="920" y="410" as="targetPoint" />
          </mxGeometry>
        </mxCell>
        <mxCell id="z75N_5129fjBr_-sa4g6-35" value="" style="endArrow=classic;html=1;rounded=0;exitX=0.5;exitY=1;exitDx=0;exitDy=0;exitPerimeter=0;entryX=0.5;entryY=0;entryDx=0;entryDy=0;fillColor=#d5e8d4;strokeColor=#82b366;" parent="WIyWlLk6GJQsqaUBKTNV-1" source="z75N_5129fjBr_-sa4g6-32" target="z75N_5129fjBr_-sa4g6-31" edge="1">
          <mxGeometry width="50" height="50" relative="1" as="geometry">
            <mxPoint x="870" y="540" as="sourcePoint" />
            <mxPoint x="920" y="490" as="targetPoint" />
          </mxGeometry>
        </mxCell>
        <mxCell id="z75N_5129fjBr_-sa4g6-36" value="yes" style="edgeLabel;html=1;align=center;verticalAlign=middle;resizable=0;points=[];" parent="z75N_5129fjBr_-sa4g6-35" vertex="1" connectable="0">
          <mxGeometry x="-0.2253" relative="1" as="geometry">
            <mxPoint as="offset" />
          </mxGeometry>
        </mxCell>
        <mxCell id="z75N_5129fjBr_-sa4g6-37" value="" style="endArrow=classic;html=1;rounded=0;exitX=0;exitY=0.5;exitDx=0;exitDy=0;entryX=0;entryY=0.5;entryDx=0;entryDy=0;fillColor=#d5e8d4;strokeColor=#82b366;" parent="WIyWlLk6GJQsqaUBKTNV-1" source="z75N_5129fjBr_-sa4g6-31" target="z75N_5129fjBr_-sa4g6-33" edge="1">
          <mxGeometry width="50" height="50" relative="1" as="geometry">
            <mxPoint x="890" y="550" as="sourcePoint" />
            <mxPoint x="940" y="500" as="targetPoint" />
            <Array as="points">
              <mxPoint x="950" y="530" />
              <mxPoint x="950" y="380" />
            </Array>
          </mxGeometry>
        </mxCell>
        <mxCell id="z75N_5129fjBr_-sa4g6-38" value="" style="endArrow=classic;html=1;rounded=0;exitX=0;exitY=0.5;exitDx=0;exitDy=0;exitPerimeter=0;fillColor=#d5e8d4;strokeColor=#82b366;" parent="WIyWlLk6GJQsqaUBKTNV-1" source="z75N_5129fjBr_-sa4g6-32" edge="1">
          <mxGeometry width="50" height="50" relative="1" as="geometry">
            <mxPoint x="800" y="540" as="sourcePoint" />
            <mxPoint x="950" y="455" as="targetPoint" />
          </mxGeometry>
        </mxCell>
        <mxCell id="z75N_5129fjBr_-sa4g6-39" value="no" style="edgeLabel;html=1;align=center;verticalAlign=middle;resizable=0;points=[];" parent="z75N_5129fjBr_-sa4g6-38" vertex="1" connectable="0">
          <mxGeometry x="-0.136" y="-2" relative="1" as="geometry">
            <mxPoint as="offset" />
          </mxGeometry>
        </mxCell>
        <mxCell id="z75N_5129fjBr_-sa4g6-40" value="" style="endArrow=classic;html=1;rounded=0;exitX=1;exitY=0.5;exitDx=0;exitDy=0;fillColor=#d5e8d4;strokeColor=#82b366;entryX=0.5;entryY=0;entryDx=0;entryDy=0;" parent="WIyWlLk6GJQsqaUBKTNV-1" source="z75N_5129fjBr_-sa4g6-33" target="z75N_5129fjBr_-sa4g6-54" edge="1">
          <mxGeometry width="50" height="50" relative="1" as="geometry">
            <mxPoint x="1270" y="440" as="sourcePoint" />
            <mxPoint x="1090" y="600" as="targetPoint" />
            <Array as="points">
              <mxPoint x="1210" y="380" />
              <mxPoint x="1210" y="570" />
              <mxPoint x="1085" y="570" />
            </Array>
          </mxGeometry>
        </mxCell>
        <mxCell id="z75N_5129fjBr_-sa4g6-41" value="" style="endArrow=classic;html=1;rounded=0;exitX=0.5;exitY=1;exitDx=0;exitDy=0;entryX=0.5;entryY=0;entryDx=0;entryDy=0;fillColor=#d5e8d4;strokeColor=#82b366;" parent="WIyWlLk6GJQsqaUBKTNV-1" source="z75N_5129fjBr_-sa4g6-28" target="z75N_5129fjBr_-sa4g6-29" edge="1">
          <mxGeometry width="50" height="50" relative="1" as="geometry">
            <mxPoint x="830" y="350" as="sourcePoint" />
            <mxPoint x="880" y="300" as="targetPoint" />
          </mxGeometry>
        </mxCell>
        <mxCell id="z75N_5129fjBr_-sa4g6-42" value="" style="endArrow=classic;html=1;rounded=0;exitX=0.5;exitY=1;exitDx=0;exitDy=0;entryX=0.5;entryY=0;entryDx=0;entryDy=0;fillColor=#d5e8d4;strokeColor=#82b366;" parent="WIyWlLk6GJQsqaUBKTNV-1" source="z75N_5129fjBr_-sa4g6-29" target="z75N_5129fjBr_-sa4g6-33" edge="1">
          <mxGeometry width="50" height="50" relative="1" as="geometry">
            <mxPoint x="820" y="360" as="sourcePoint" />
            <mxPoint x="1084.5" y="360" as="targetPoint" />
          </mxGeometry>
        </mxCell>
        <mxCell id="z75N_5129fjBr_-sa4g6-44" value="Start" style="strokeWidth=2;html=1;shape=mxgraph.flowchart.start_1;whiteSpace=wrap;fillColor=#d5e8d4;strokeColor=#82b366;" parent="WIyWlLk6GJQsqaUBKTNV-1" vertex="1">
          <mxGeometry x="1034.51" y="10" width="100" height="40" as="geometry" />
        </mxCell>
        <mxCell id="z75N_5129fjBr_-sa4g6-45" value="" style="endArrow=classic;html=1;rounded=0;exitX=0.5;exitY=1;exitDx=0;exitDy=0;exitPerimeter=0;entryX=0.5;entryY=0;entryDx=0;entryDy=0;fillColor=#d5e8d4;strokeColor=#82b366;" parent="WIyWlLk6GJQsqaUBKTNV-1" source="z75N_5129fjBr_-sa4g6-44" target="z75N_5129fjBr_-sa4g6-22" edge="1">
          <mxGeometry width="50" height="50" relative="1" as="geometry">
            <mxPoint x="910" y="120" as="sourcePoint" />
            <mxPoint x="1084.5" y="79.99999999999994" as="targetPoint" />
          </mxGeometry>
        </mxCell>
        <mxCell id="z75N_5129fjBr_-sa4g6-46" value="" style="endArrow=classic;html=1;rounded=0;exitX=0.5;exitY=1;exitDx=0;exitDy=0;entryX=0.5;entryY=0;entryDx=0;entryDy=0;" parent="WIyWlLk6GJQsqaUBKTNV-1" source="z75N_5129fjBr_-sa4g6-15" target="z75N_5129fjBr_-sa4g6-48" edge="1">
          <mxGeometry width="50" height="50" relative="1" as="geometry">
            <mxPoint x="560" y="490" as="sourcePoint" />
            <mxPoint x="535" y="410" as="targetPoint" />
          </mxGeometry>
        </mxCell>
        <mxCell id="z75N_5129fjBr_-sa4g6-47" value="shortestWay(startCity, targetCity)" style="rounded=1;whiteSpace=wrap;html=1;absoluteArcSize=1;arcSize=14;strokeWidth=2;fillColor=#d5e8d4;strokeColor=#82b366;" parent="WIyWlLk6GJQsqaUBKTNV-1" vertex="1">
          <mxGeometry x="431" y="480" width="206" height="50" as="geometry" />
        </mxCell>
        <mxCell id="z75N_5129fjBr_-sa4g6-48" value="input:&lt;br&gt;startCity, targetCity" style="shape=parallelogram;html=1;strokeWidth=2;perimeter=parallelogramPerimeter;whiteSpace=wrap;rounded=1;arcSize=12;size=0.23;" parent="WIyWlLk6GJQsqaUBKTNV-1" vertex="1">
          <mxGeometry x="443.5" y="410" width="182" height="40" as="geometry" />
        </mxCell>
        <mxCell id="z75N_5129fjBr_-sa4g6-49" value="" style="endArrow=classic;html=1;rounded=0;exitX=0.5;exitY=1;exitDx=0;exitDy=0;entryX=0.5;entryY=0;entryDx=0;entryDy=0;" parent="WIyWlLk6GJQsqaUBKTNV-1" source="z75N_5129fjBr_-sa4g6-48" target="z75N_5129fjBr_-sa4g6-47" edge="1">
          <mxGeometry width="50" height="50" relative="1" as="geometry">
            <mxPoint x="360" y="460" as="sourcePoint" />
            <mxPoint x="410" y="410" as="targetPoint" />
          </mxGeometry>
        </mxCell>
        <mxCell id="z75N_5129fjBr_-sa4g6-50" value="End" style="strokeWidth=2;html=1;shape=mxgraph.flowchart.start_1;whiteSpace=wrap;" parent="WIyWlLk6GJQsqaUBKTNV-1" vertex="1">
          <mxGeometry x="484.5" y="640" width="100" height="40" as="geometry" />
        </mxCell>
        <mxCell id="z75N_5129fjBr_-sa4g6-51" value="" style="endArrow=classic;html=1;rounded=0;exitX=0.5;exitY=1;exitDx=0;exitDy=0;entryX=0.5;entryY=0;entryDx=0;entryDy=0;" parent="WIyWlLk6GJQsqaUBKTNV-1" source="z75N_5129fjBr_-sa4g6-47" target="z75N_5129fjBr_-sa4g6-52" edge="1">
          <mxGeometry width="50" height="50" relative="1" as="geometry">
            <mxPoint x="340" y="610" as="sourcePoint" />
            <mxPoint x="534" y="560" as="targetPoint" />
          </mxGeometry>
        </mxCell>
        <mxCell id="z75N_5129fjBr_-sa4g6-52" value="output:&lt;br&gt;previousCities, distance" style="shape=parallelogram;html=1;strokeWidth=2;perimeter=parallelogramPerimeter;whiteSpace=wrap;rounded=1;arcSize=12;size=0.23;" parent="WIyWlLk6GJQsqaUBKTNV-1" vertex="1">
          <mxGeometry x="427.5" y="565" width="213" height="40" as="geometry" />
        </mxCell>
        <mxCell id="z75N_5129fjBr_-sa4g6-53" value="" style="endArrow=classic;html=1;rounded=0;exitX=0.5;exitY=1;exitDx=0;exitDy=0;entryX=0.5;entryY=0;entryDx=0;entryDy=0;entryPerimeter=0;" parent="WIyWlLk6GJQsqaUBKTNV-1" source="z75N_5129fjBr_-sa4g6-52" target="z75N_5129fjBr_-sa4g6-50" edge="1">
          <mxGeometry width="50" height="50" relative="1" as="geometry">
            <mxPoint x="290" y="630" as="sourcePoint" />
            <mxPoint x="340" y="580" as="targetPoint" />
          </mxGeometry>
        </mxCell>
        <mxCell id="z75N_5129fjBr_-sa4g6-54" value="i = 0; cities; 1" style="shape=hexagon;perimeter=hexagonPerimeter2;whiteSpace=wrap;html=1;fixedSize=1;fillColor=#d5e8d4;strokeColor=#82b366;" parent="WIyWlLk6GJQsqaUBKTNV-1" vertex="1">
          <mxGeometry x="1024" y="590" width="120" height="40" as="geometry" />
        </mxCell>
        <mxCell id="z75N_5129fjBr_-sa4g6-55" value="!visited[i]" style="rhombus;whiteSpace=wrap;html=1;fillColor=#d5e8d4;strokeColor=#82b366;" parent="WIyWlLk6GJQsqaUBKTNV-1" vertex="1">
          <mxGeometry x="1037.51" y="650" width="94" height="50" as="geometry" />
        </mxCell>
        <mxCell id="z75N_5129fjBr_-sa4g6-56" value="dist...s[i] &amp;lt; shortest" style="rhombus;whiteSpace=wrap;html=1;fillColor=#d5e8d4;strokeColor=#82b366;" parent="WIyWlLk6GJQsqaUBKTNV-1" vertex="1">
          <mxGeometry x="1018.25" y="730" width="132.49" height="50" as="geometry" />
        </mxCell>
        <mxCell id="z75N_5129fjBr_-sa4g6-59" value="shortest = dist...s[i]&lt;br&gt;nextCity = i" style="rounded=1;whiteSpace=wrap;html=1;absoluteArcSize=1;arcSize=14;strokeWidth=2;fillColor=#d5e8d4;strokeColor=#82b366;" parent="WIyWlLk6GJQsqaUBKTNV-1" vertex="1">
          <mxGeometry x="1016.25" y="820" width="135.5" height="40" as="geometry" />
        </mxCell>
        <mxCell id="z75N_5129fjBr_-sa4g6-60" value="" style="endArrow=classic;html=1;rounded=0;exitX=0.5;exitY=1;exitDx=0;exitDy=0;entryX=0.5;entryY=0;entryDx=0;entryDy=0;fillColor=#d5e8d4;strokeColor=#82b366;" parent="WIyWlLk6GJQsqaUBKTNV-1" source="z75N_5129fjBr_-sa4g6-54" target="z75N_5129fjBr_-sa4g6-55" edge="1">
          <mxGeometry width="50" height="50" relative="1" as="geometry">
            <mxPoint x="800" y="650" as="sourcePoint" />
            <mxPoint x="850" y="600" as="targetPoint" />
          </mxGeometry>
        </mxCell>
        <mxCell id="z75N_5129fjBr_-sa4g6-61" value="" style="endArrow=classic;html=1;rounded=0;exitX=0;exitY=0.5;exitDx=0;exitDy=0;entryX=0;entryY=0.5;entryDx=0;entryDy=0;fillColor=#d5e8d4;strokeColor=#82b366;" parent="WIyWlLk6GJQsqaUBKTNV-1" source="z75N_5129fjBr_-sa4g6-59" target="z75N_5129fjBr_-sa4g6-54" edge="1">
          <mxGeometry width="50" height="50" relative="1" as="geometry">
            <mxPoint x="1020" y="960" as="sourcePoint" />
            <mxPoint x="820" y="920" as="targetPoint" />
            <Array as="points">
              <mxPoint x="970" y="840" />
              <mxPoint x="970" y="610" />
            </Array>
          </mxGeometry>
        </mxCell>
        <mxCell id="z75N_5129fjBr_-sa4g6-62" value="" style="endArrow=classic;html=1;rounded=0;exitX=0;exitY=0.5;exitDx=0;exitDy=0;fillColor=#d5e8d4;strokeColor=#82b366;" parent="WIyWlLk6GJQsqaUBKTNV-1" edge="1" source="z75N_5129fjBr_-sa4g6-55">
          <mxGeometry width="50" height="50" relative="1" as="geometry">
            <mxPoint x="1200" y="740" as="sourcePoint" />
            <mxPoint x="970" y="675" as="targetPoint" />
          </mxGeometry>
        </mxCell>
        <mxCell id="HU79ccp8oiayO_ZyE8UI-0" value="no" style="edgeLabel;html=1;align=center;verticalAlign=middle;resizable=0;points=[];" vertex="1" connectable="0" parent="z75N_5129fjBr_-sa4g6-62">
          <mxGeometry x="0.0757" y="-2" relative="1" as="geometry">
            <mxPoint x="-4" y="2" as="offset" />
          </mxGeometry>
        </mxCell>
        <mxCell id="HU79ccp8oiayO_ZyE8UI-1" value="" style="endArrow=classic;html=1;rounded=0;exitX=0.5;exitY=1;exitDx=0;exitDy=0;entryX=0.5;entryY=0;entryDx=0;entryDy=0;fillColor=#d5e8d4;strokeColor=#82b366;" edge="1" parent="WIyWlLk6GJQsqaUBKTNV-1" source="z75N_5129fjBr_-sa4g6-55" target="z75N_5129fjBr_-sa4g6-56">
          <mxGeometry width="50" height="50" relative="1" as="geometry">
            <mxPoint x="1350" y="690" as="sourcePoint" />
            <mxPoint x="1400" y="640" as="targetPoint" />
          </mxGeometry>
        </mxCell>
        <mxCell id="HU79ccp8oiayO_ZyE8UI-2" value="yes" style="edgeLabel;html=1;align=center;verticalAlign=middle;resizable=0;points=[];" vertex="1" connectable="0" parent="HU79ccp8oiayO_ZyE8UI-1">
          <mxGeometry x="-0.28" y="1" relative="1" as="geometry">
            <mxPoint as="offset" />
          </mxGeometry>
        </mxCell>
        <mxCell id="HU79ccp8oiayO_ZyE8UI-3" value="" style="endArrow=classic;html=1;rounded=0;exitX=0;exitY=0.5;exitDx=0;exitDy=0;fillColor=#d5e8d4;strokeColor=#82b366;" edge="1" parent="WIyWlLk6GJQsqaUBKTNV-1" source="z75N_5129fjBr_-sa4g6-56">
          <mxGeometry width="50" height="50" relative="1" as="geometry">
            <mxPoint x="740" y="800" as="sourcePoint" />
            <mxPoint x="970" y="755" as="targetPoint" />
          </mxGeometry>
        </mxCell>
        <mxCell id="HU79ccp8oiayO_ZyE8UI-4" value="no" style="edgeLabel;html=1;align=center;verticalAlign=middle;resizable=0;points=[];" vertex="1" connectable="0" parent="HU79ccp8oiayO_ZyE8UI-3">
          <mxGeometry x="-0.086" y="-1" relative="1" as="geometry">
            <mxPoint as="offset" />
          </mxGeometry>
        </mxCell>
        <mxCell id="HU79ccp8oiayO_ZyE8UI-5" value="" style="endArrow=classic;html=1;rounded=0;exitX=0.5;exitY=1;exitDx=0;exitDy=0;entryX=0.5;entryY=0;entryDx=0;entryDy=0;fillColor=#d5e8d4;strokeColor=#82b366;" edge="1" parent="WIyWlLk6GJQsqaUBKTNV-1" source="z75N_5129fjBr_-sa4g6-56" target="z75N_5129fjBr_-sa4g6-59">
          <mxGeometry width="50" height="50" relative="1" as="geometry">
            <mxPoint x="1290" y="770" as="sourcePoint" />
            <mxPoint x="1340" y="720" as="targetPoint" />
          </mxGeometry>
        </mxCell>
        <mxCell id="HU79ccp8oiayO_ZyE8UI-6" value="yes" style="edgeLabel;html=1;align=center;verticalAlign=middle;resizable=0;points=[];" vertex="1" connectable="0" parent="HU79ccp8oiayO_ZyE8UI-5">
          <mxGeometry x="-0.1112" y="1" relative="1" as="geometry">
            <mxPoint as="offset" />
          </mxGeometry>
        </mxCell>
        <mxCell id="HU79ccp8oiayO_ZyE8UI-7" value="" style="endArrow=classic;html=1;rounded=0;exitX=1;exitY=0.5;exitDx=0;exitDy=0;fillColor=#d5e8d4;strokeColor=#82b366;entryX=0.5;entryY=0;entryDx=0;entryDy=0;" edge="1" parent="WIyWlLk6GJQsqaUBKTNV-1" source="z75N_5129fjBr_-sa4g6-54" target="HU79ccp8oiayO_ZyE8UI-11">
          <mxGeometry width="50" height="50" relative="1" as="geometry">
            <mxPoint x="1210" y="670" as="sourcePoint" />
            <mxPoint x="1084" y="900" as="targetPoint" />
            <Array as="points">
              <mxPoint x="1190" y="610" />
              <mxPoint x="1190" y="870" />
              <mxPoint x="1084" y="870" />
            </Array>
          </mxGeometry>
        </mxCell>
        <mxCell id="HU79ccp8oiayO_ZyE8UI-8" value="previousCities = previousCities[targetCity]&lt;br&gt;distance = distances[targetCity]" style="rounded=1;whiteSpace=wrap;html=1;absoluteArcSize=1;arcSize=14;strokeWidth=2;fillColor=#d5e8d4;strokeColor=#82b366;" vertex="1" parent="WIyWlLk6GJQsqaUBKTNV-1">
          <mxGeometry x="956.49" y="990" width="255" height="40" as="geometry" />
        </mxCell>
        <mxCell id="HU79ccp8oiayO_ZyE8UI-9" value="" style="endArrow=classic;html=1;rounded=0;exitX=0.5;exitY=1;exitDx=0;exitDy=0;entryX=0.5;entryY=0;entryDx=0;entryDy=0;entryPerimeter=0;fillColor=#d5e8d4;strokeColor=#82b366;" edge="1" parent="WIyWlLk6GJQsqaUBKTNV-1" source="HU79ccp8oiayO_ZyE8UI-8" target="HU79ccp8oiayO_ZyE8UI-10">
          <mxGeometry width="50" height="50" relative="1" as="geometry">
            <mxPoint x="1113.5" y="1190" as="sourcePoint" />
            <mxPoint x="1077.5" y="1130" as="targetPoint" />
          </mxGeometry>
        </mxCell>
        <mxCell id="HU79ccp8oiayO_ZyE8UI-10" value="End" style="strokeWidth=2;html=1;shape=mxgraph.flowchart.start_1;whiteSpace=wrap;fillColor=#d5e8d4;strokeColor=#82b366;" vertex="1" parent="WIyWlLk6GJQsqaUBKTNV-1">
          <mxGeometry x="1034" y="1060" width="100" height="40" as="geometry" />
        </mxCell>
        <mxCell id="HU79ccp8oiayO_ZyE8UI-11" value="currentCity = nextCity" style="rounded=1;whiteSpace=wrap;html=1;absoluteArcSize=1;arcSize=14;strokeWidth=2;fillColor=#d5e8d4;strokeColor=#82b366;" vertex="1" parent="WIyWlLk6GJQsqaUBKTNV-1">
          <mxGeometry x="1011.25" y="900" width="145.49" height="40" as="geometry" />
        </mxCell>
        <mxCell id="HU79ccp8oiayO_ZyE8UI-12" value="" style="endArrow=classic;html=1;rounded=0;exitX=0;exitY=0.5;exitDx=0;exitDy=0;entryX=0;entryY=0.5;entryDx=0;entryDy=0;fillColor=#d5e8d4;strokeColor=#82b366;" edge="1" parent="WIyWlLk6GJQsqaUBKTNV-1" source="HU79ccp8oiayO_ZyE8UI-11" target="z75N_5129fjBr_-sa4g6-28">
          <mxGeometry width="50" height="50" relative="1" as="geometry">
            <mxPoint x="850" y="920" as="sourcePoint" />
            <mxPoint x="920" y="270" as="targetPoint" />
            <Array as="points">
              <mxPoint x="920" y="920" />
              <mxPoint x="920" y="250" />
            </Array>
          </mxGeometry>
        </mxCell>
        <mxCell id="HU79ccp8oiayO_ZyE8UI-13" value="" style="endArrow=classic;html=1;rounded=0;exitX=1;exitY=0.5;exitDx=0;exitDy=0;entryX=0.5;entryY=0;entryDx=0;entryDy=0;fillColor=#d5e8d4;strokeColor=#82b366;" edge="1" parent="WIyWlLk6GJQsqaUBKTNV-1" source="z75N_5129fjBr_-sa4g6-28" target="HU79ccp8oiayO_ZyE8UI-8">
          <mxGeometry width="50" height="50" relative="1" as="geometry">
            <mxPoint x="1240" y="240" as="sourcePoint" />
            <mxPoint x="1040" y="970" as="targetPoint" />
            <Array as="points">
              <mxPoint x="1240" y="250" />
              <mxPoint x="1240" y="960" />
              <mxPoint x="1084" y="960" />
            </Array>
          </mxGeometry>
        </mxCell>
        <mxCell id="HU79ccp8oiayO_ZyE8UI-15" value="Одеса" style="ellipse;whiteSpace=wrap;html=1;aspect=fixed;" vertex="1" parent="WIyWlLk6GJQsqaUBKTNV-1">
          <mxGeometry x="-475" y="555" width="75" height="75" as="geometry" />
        </mxCell>
        <mxCell id="HU79ccp8oiayO_ZyE8UI-16" value="Вінниця" style="ellipse;whiteSpace=wrap;html=1;aspect=fixed;" vertex="1" parent="WIyWlLk6GJQsqaUBKTNV-1">
          <mxGeometry x="-580" y="395" width="75" height="75" as="geometry" />
        </mxCell>
        <mxCell id="HU79ccp8oiayO_ZyE8UI-17" value="Кропивницький" style="ellipse;whiteSpace=wrap;html=1;aspect=fixed;" vertex="1" parent="WIyWlLk6GJQsqaUBKTNV-1">
          <mxGeometry x="-380" y="305" width="100" height="100" as="geometry" />
        </mxCell>
        <mxCell id="HU79ccp8oiayO_ZyE8UI-18" value="Миколаїв" style="ellipse;whiteSpace=wrap;html=1;aspect=fixed;" vertex="1" parent="WIyWlLk6GJQsqaUBKTNV-1">
          <mxGeometry x="-300" y="470" width="75" height="75" as="geometry" />
        </mxCell>
        <mxCell id="HU79ccp8oiayO_ZyE8UI-19" value="Херсон" style="ellipse;whiteSpace=wrap;html=1;aspect=fixed;" vertex="1" parent="WIyWlLk6GJQsqaUBKTNV-1">
          <mxGeometry x="-140" y="395" width="75" height="75" as="geometry" />
        </mxCell>
        <mxCell id="HU79ccp8oiayO_ZyE8UI-20" value="Севастополь" style="ellipse;whiteSpace=wrap;html=1;aspect=fixed;" vertex="1" parent="WIyWlLk6GJQsqaUBKTNV-1">
          <mxGeometry x="-150" y="545" width="75" height="75" as="geometry" />
        </mxCell>
        <mxCell id="HU79ccp8oiayO_ZyE8UI-21" value="Дніпро" style="ellipse;whiteSpace=wrap;html=1;aspect=fixed;" vertex="1" parent="WIyWlLk6GJQsqaUBKTNV-1">
          <mxGeometry x="-130" y="250" width="75" height="75" as="geometry" />
        </mxCell>
        <mxCell id="HU79ccp8oiayO_ZyE8UI-22" value="Черкаси" style="ellipse;whiteSpace=wrap;html=1;aspect=fixed;" vertex="1" parent="WIyWlLk6GJQsqaUBKTNV-1">
          <mxGeometry x="-455" y="210" width="75" height="75" as="geometry" />
        </mxCell>
        <mxCell id="HU79ccp8oiayO_ZyE8UI-23" value="Київ" style="ellipse;whiteSpace=wrap;html=1;aspect=fixed;" vertex="1" parent="WIyWlLk6GJQsqaUBKTNV-1">
          <mxGeometry x="-550" y="95" width="75" height="75" as="geometry" />
        </mxCell>
        <mxCell id="HU79ccp8oiayO_ZyE8UI-24" value="Полтава" style="ellipse;whiteSpace=wrap;html=1;aspect=fixed;" vertex="1" parent="WIyWlLk6GJQsqaUBKTNV-1">
          <mxGeometry x="-260" y="145" width="75" height="75" as="geometry" />
        </mxCell>
        <mxCell id="HU79ccp8oiayO_ZyE8UI-25" value="Чернігів" style="ellipse;whiteSpace=wrap;html=1;aspect=fixed;" vertex="1" parent="WIyWlLk6GJQsqaUBKTNV-1">
          <mxGeometry x="-430" y="10" width="75" height="75" as="geometry" />
        </mxCell>
        <mxCell id="HU79ccp8oiayO_ZyE8UI-26" value="Суми" style="ellipse;whiteSpace=wrap;html=1;aspect=fixed;" vertex="1" parent="WIyWlLk6GJQsqaUBKTNV-1">
          <mxGeometry x="-140" y="70" width="75" height="75" as="geometry" />
        </mxCell>
        <mxCell id="HU79ccp8oiayO_ZyE8UI-27" value="Харків" style="ellipse;whiteSpace=wrap;html=1;aspect=fixed;" vertex="1" parent="WIyWlLk6GJQsqaUBKTNV-1">
          <mxGeometry x="-10" y="155" width="75" height="75" as="geometry" />
        </mxCell>
        <mxCell id="HU79ccp8oiayO_ZyE8UI-28" value="Запоріжжя" style="ellipse;whiteSpace=wrap;html=1;aspect=fixed;" vertex="1" parent="WIyWlLk6GJQsqaUBKTNV-1">
          <mxGeometry x="10" y="342.5" width="75" height="75" as="geometry" />
        </mxCell>
        <mxCell id="HU79ccp8oiayO_ZyE8UI-29" value="Донецьк" style="ellipse;whiteSpace=wrap;html=1;aspect=fixed;" vertex="1" parent="WIyWlLk6GJQsqaUBKTNV-1">
          <mxGeometry x="150" y="282.5" width="75" height="75" as="geometry" />
        </mxCell>
        <mxCell id="HU79ccp8oiayO_ZyE8UI-30" value="Луганськ" style="ellipse;whiteSpace=wrap;html=1;aspect=fixed;" vertex="1" parent="WIyWlLk6GJQsqaUBKTNV-1">
          <mxGeometry x="150" y="170" width="75" height="75" as="geometry" />
        </mxCell>
        <mxCell id="HU79ccp8oiayO_ZyE8UI-31" value="Житомир" style="ellipse;whiteSpace=wrap;html=1;aspect=fixed;" vertex="1" parent="WIyWlLk6GJQsqaUBKTNV-1">
          <mxGeometry x="-675" y="150" width="75" height="75" as="geometry" />
        </mxCell>
        <mxCell id="HU79ccp8oiayO_ZyE8UI-32" value="Рівне" style="ellipse;whiteSpace=wrap;html=1;aspect=fixed;" vertex="1" parent="WIyWlLk6GJQsqaUBKTNV-1">
          <mxGeometry x="-820" y="142.5" width="75" height="75" as="geometry" />
        </mxCell>
        <mxCell id="HU79ccp8oiayO_ZyE8UI-33" value="Хмельницький" style="ellipse;whiteSpace=wrap;html=1;aspect=fixed;" vertex="1" parent="WIyWlLk6GJQsqaUBKTNV-1">
          <mxGeometry x="-745" y="285" width="95" height="95" as="geometry" />
        </mxCell>
        <mxCell id="HU79ccp8oiayO_ZyE8UI-34" value="Чернівці" style="ellipse;whiteSpace=wrap;html=1;aspect=fixed;" vertex="1" parent="WIyWlLk6GJQsqaUBKTNV-1">
          <mxGeometry x="-750" y="417.5" width="75" height="75" as="geometry" />
        </mxCell>
        <mxCell id="HU79ccp8oiayO_ZyE8UI-35" value="Тернопіль" style="ellipse;whiteSpace=wrap;html=1;aspect=fixed;" vertex="1" parent="WIyWlLk6GJQsqaUBKTNV-1">
          <mxGeometry x="-865" y="335" width="75" height="75" as="geometry" />
        </mxCell>
        <mxCell id="HU79ccp8oiayO_ZyE8UI-36" value="Луцьк" style="ellipse;whiteSpace=wrap;html=1;aspect=fixed;" vertex="1" parent="WIyWlLk6GJQsqaUBKTNV-1">
          <mxGeometry x="-1005" y="125" width="75" height="75" as="geometry" />
        </mxCell>
        <mxCell id="HU79ccp8oiayO_ZyE8UI-37" value="Львів" style="ellipse;whiteSpace=wrap;html=1;aspect=fixed;" vertex="1" parent="WIyWlLk6GJQsqaUBKTNV-1">
          <mxGeometry x="-1050" y="295" width="75" height="75" as="geometry" />
        </mxCell>
        <mxCell id="HU79ccp8oiayO_ZyE8UI-38" value="Івано-Франківськ" style="ellipse;whiteSpace=wrap;html=1;aspect=fixed;" vertex="1" parent="WIyWlLk6GJQsqaUBKTNV-1">
          <mxGeometry x="-940" y="440" width="75" height="75" as="geometry" />
        </mxCell>
        <mxCell id="HU79ccp8oiayO_ZyE8UI-39" value="Ужгород" style="ellipse;whiteSpace=wrap;html=1;aspect=fixed;" vertex="1" parent="WIyWlLk6GJQsqaUBKTNV-1">
          <mxGeometry x="-1110" y="455" width="75" height="75" as="geometry" />
        </mxCell>
        <mxCell id="HU79ccp8oiayO_ZyE8UI-40" value="" style="endArrow=none;html=1;rounded=0;" edge="1" parent="WIyWlLk6GJQsqaUBKTNV-1" source="HU79ccp8oiayO_ZyE8UI-15" target="HU79ccp8oiayO_ZyE8UI-17">
          <mxGeometry width="50" height="50" relative="1" as="geometry">
            <mxPoint x="-470" y="470" as="sourcePoint" />
            <mxPoint x="-420" y="420" as="targetPoint" />
          </mxGeometry>
        </mxCell>
        <mxCell id="HU79ccp8oiayO_ZyE8UI-118" value="328" style="edgeLabel;html=1;align=center;verticalAlign=middle;resizable=0;points=[];" vertex="1" connectable="0" parent="HU79ccp8oiayO_ZyE8UI-40">
          <mxGeometry x="-0.019" y="1" relative="1" as="geometry">
            <mxPoint as="offset" />
          </mxGeometry>
        </mxCell>
        <mxCell id="HU79ccp8oiayO_ZyE8UI-41" value="" style="endArrow=none;html=1;rounded=0;" edge="1" parent="WIyWlLk6GJQsqaUBKTNV-1" source="HU79ccp8oiayO_ZyE8UI-18" target="HU79ccp8oiayO_ZyE8UI-15">
          <mxGeometry width="50" height="50" relative="1" as="geometry">
            <mxPoint x="-770" y="710" as="sourcePoint" />
            <mxPoint x="-720" y="660" as="targetPoint" />
          </mxGeometry>
        </mxCell>
        <mxCell id="HU79ccp8oiayO_ZyE8UI-119" value="133" style="edgeLabel;html=1;align=center;verticalAlign=middle;resizable=0;points=[];" vertex="1" connectable="0" parent="HU79ccp8oiayO_ZyE8UI-41">
          <mxGeometry x="-0.0912" y="-1" relative="1" as="geometry">
            <mxPoint as="offset" />
          </mxGeometry>
        </mxCell>
        <mxCell id="HU79ccp8oiayO_ZyE8UI-43" value="" style="endArrow=none;html=1;rounded=0;" edge="1" parent="WIyWlLk6GJQsqaUBKTNV-1" source="HU79ccp8oiayO_ZyE8UI-16" target="HU79ccp8oiayO_ZyE8UI-15">
          <mxGeometry width="50" height="50" relative="1" as="geometry">
            <mxPoint x="-760" y="720" as="sourcePoint" />
            <mxPoint x="-710" y="670" as="targetPoint" />
          </mxGeometry>
        </mxCell>
        <mxCell id="HU79ccp8oiayO_ZyE8UI-106" value="423" style="edgeLabel;html=1;align=center;verticalAlign=middle;resizable=0;points=[];" vertex="1" connectable="0" parent="HU79ccp8oiayO_ZyE8UI-43">
          <mxGeometry x="-0.2146" y="-2" relative="1" as="geometry">
            <mxPoint as="offset" />
          </mxGeometry>
        </mxCell>
        <mxCell id="HU79ccp8oiayO_ZyE8UI-44" value="" style="endArrow=none;html=1;rounded=0;" edge="1" parent="WIyWlLk6GJQsqaUBKTNV-1" source="HU79ccp8oiayO_ZyE8UI-34" target="HU79ccp8oiayO_ZyE8UI-16">
          <mxGeometry width="50" height="50" relative="1" as="geometry">
            <mxPoint x="-750" y="730" as="sourcePoint" />
            <mxPoint x="-700" y="680" as="targetPoint" />
          </mxGeometry>
        </mxCell>
        <mxCell id="HU79ccp8oiayO_ZyE8UI-105" value="269" style="edgeLabel;html=1;align=center;verticalAlign=middle;resizable=0;points=[];" vertex="1" connectable="0" parent="HU79ccp8oiayO_ZyE8UI-44">
          <mxGeometry x="0.1039" y="3" relative="1" as="geometry">
            <mxPoint as="offset" />
          </mxGeometry>
        </mxCell>
        <mxCell id="HU79ccp8oiayO_ZyE8UI-45" value="" style="endArrow=none;html=1;rounded=0;" edge="1" parent="WIyWlLk6GJQsqaUBKTNV-1" source="HU79ccp8oiayO_ZyE8UI-17" target="HU79ccp8oiayO_ZyE8UI-16">
          <mxGeometry width="50" height="50" relative="1" as="geometry">
            <mxPoint x="-740" y="740" as="sourcePoint" />
            <mxPoint x="-690" y="690" as="targetPoint" />
          </mxGeometry>
        </mxCell>
        <mxCell id="HU79ccp8oiayO_ZyE8UI-117" value="337" style="edgeLabel;html=1;align=center;verticalAlign=middle;resizable=0;points=[];" vertex="1" connectable="0" parent="HU79ccp8oiayO_ZyE8UI-45">
          <mxGeometry x="-0.1335" relative="1" as="geometry">
            <mxPoint as="offset" />
          </mxGeometry>
        </mxCell>
        <mxCell id="HU79ccp8oiayO_ZyE8UI-46" value="" style="endArrow=none;html=1;rounded=0;" edge="1" parent="WIyWlLk6GJQsqaUBKTNV-1" source="HU79ccp8oiayO_ZyE8UI-19" target="HU79ccp8oiayO_ZyE8UI-18">
          <mxGeometry width="50" height="50" relative="1" as="geometry">
            <mxPoint x="-730" y="750" as="sourcePoint" />
            <mxPoint x="-680" y="700" as="targetPoint" />
          </mxGeometry>
        </mxCell>
        <mxCell id="HU79ccp8oiayO_ZyE8UI-124" value="71" style="edgeLabel;html=1;align=center;verticalAlign=middle;resizable=0;points=[];" vertex="1" connectable="0" parent="HU79ccp8oiayO_ZyE8UI-46">
          <mxGeometry x="-0.1711" relative="1" as="geometry">
            <mxPoint as="offset" />
          </mxGeometry>
        </mxCell>
        <mxCell id="HU79ccp8oiayO_ZyE8UI-47" value="" style="endArrow=none;html=1;rounded=0;" edge="1" parent="WIyWlLk6GJQsqaUBKTNV-1" source="HU79ccp8oiayO_ZyE8UI-20" target="HU79ccp8oiayO_ZyE8UI-19">
          <mxGeometry width="50" height="50" relative="1" as="geometry">
            <mxPoint x="-720" y="760" as="sourcePoint" />
            <mxPoint x="-670" y="710" as="targetPoint" />
          </mxGeometry>
        </mxCell>
        <mxCell id="HU79ccp8oiayO_ZyE8UI-125" value="276" style="edgeLabel;html=1;align=center;verticalAlign=middle;resizable=0;points=[];" vertex="1" connectable="0" parent="HU79ccp8oiayO_ZyE8UI-47">
          <mxGeometry x="0.0902" y="-2" relative="1" as="geometry">
            <mxPoint as="offset" />
          </mxGeometry>
        </mxCell>
        <mxCell id="HU79ccp8oiayO_ZyE8UI-48" value="" style="endArrow=none;html=1;rounded=0;" edge="1" parent="WIyWlLk6GJQsqaUBKTNV-1" source="HU79ccp8oiayO_ZyE8UI-19" target="HU79ccp8oiayO_ZyE8UI-21">
          <mxGeometry width="50" height="50" relative="1" as="geometry">
            <mxPoint x="-710" y="770" as="sourcePoint" />
            <mxPoint x="-660" y="720" as="targetPoint" />
          </mxGeometry>
        </mxCell>
        <mxCell id="HU79ccp8oiayO_ZyE8UI-127" value="329" style="edgeLabel;html=1;align=center;verticalAlign=middle;resizable=0;points=[];" vertex="1" connectable="0" parent="HU79ccp8oiayO_ZyE8UI-48">
          <mxGeometry x="0.1338" y="-1" relative="1" as="geometry">
            <mxPoint as="offset" />
          </mxGeometry>
        </mxCell>
        <mxCell id="HU79ccp8oiayO_ZyE8UI-49" value="" style="endArrow=none;html=1;rounded=0;" edge="1" parent="WIyWlLk6GJQsqaUBKTNV-1" source="HU79ccp8oiayO_ZyE8UI-28" target="HU79ccp8oiayO_ZyE8UI-19">
          <mxGeometry width="50" height="50" relative="1" as="geometry">
            <mxPoint x="-700" y="780" as="sourcePoint" />
            <mxPoint x="-650" y="730" as="targetPoint" />
          </mxGeometry>
        </mxCell>
        <mxCell id="HU79ccp8oiayO_ZyE8UI-126" value="353" style="edgeLabel;html=1;align=center;verticalAlign=middle;resizable=0;points=[];" vertex="1" connectable="0" parent="HU79ccp8oiayO_ZyE8UI-49">
          <mxGeometry x="0.0602" y="-1" relative="1" as="geometry">
            <mxPoint as="offset" />
          </mxGeometry>
        </mxCell>
        <mxCell id="HU79ccp8oiayO_ZyE8UI-50" value="" style="endArrow=none;html=1;rounded=0;" edge="1" parent="WIyWlLk6GJQsqaUBKTNV-1" source="HU79ccp8oiayO_ZyE8UI-28" target="HU79ccp8oiayO_ZyE8UI-29">
          <mxGeometry width="50" height="50" relative="1" as="geometry">
            <mxPoint x="-690" y="790" as="sourcePoint" />
            <mxPoint x="-640" y="740" as="targetPoint" />
          </mxGeometry>
        </mxCell>
        <mxCell id="HU79ccp8oiayO_ZyE8UI-135" value="229" style="edgeLabel;html=1;align=center;verticalAlign=middle;resizable=0;points=[];" vertex="1" connectable="0" parent="HU79ccp8oiayO_ZyE8UI-50">
          <mxGeometry x="-0.024" y="-1" relative="1" as="geometry">
            <mxPoint y="-1" as="offset" />
          </mxGeometry>
        </mxCell>
        <mxCell id="HU79ccp8oiayO_ZyE8UI-51" value="" style="endArrow=none;html=1;rounded=0;" edge="1" parent="WIyWlLk6GJQsqaUBKTNV-1" source="HU79ccp8oiayO_ZyE8UI-29" target="HU79ccp8oiayO_ZyE8UI-30">
          <mxGeometry width="50" height="50" relative="1" as="geometry">
            <mxPoint x="-680" y="800" as="sourcePoint" />
            <mxPoint x="-630" y="750" as="targetPoint" />
          </mxGeometry>
        </mxCell>
        <mxCell id="HU79ccp8oiayO_ZyE8UI-134" value="174" style="edgeLabel;html=1;align=center;verticalAlign=middle;resizable=0;points=[];" vertex="1" connectable="0" parent="HU79ccp8oiayO_ZyE8UI-51">
          <mxGeometry x="0.094" relative="1" as="geometry">
            <mxPoint as="offset" />
          </mxGeometry>
        </mxCell>
        <mxCell id="HU79ccp8oiayO_ZyE8UI-52" value="" style="endArrow=none;html=1;rounded=0;" edge="1" parent="WIyWlLk6GJQsqaUBKTNV-1" source="HU79ccp8oiayO_ZyE8UI-27" target="HU79ccp8oiayO_ZyE8UI-30">
          <mxGeometry width="50" height="50" relative="1" as="geometry">
            <mxPoint x="-670" y="810" as="sourcePoint" />
            <mxPoint x="-620" y="760" as="targetPoint" />
          </mxGeometry>
        </mxCell>
        <mxCell id="HU79ccp8oiayO_ZyE8UI-133" value="329" style="edgeLabel;html=1;align=center;verticalAlign=middle;resizable=0;points=[];" vertex="1" connectable="0" parent="HU79ccp8oiayO_ZyE8UI-52">
          <mxGeometry x="0.1315" relative="1" as="geometry">
            <mxPoint as="offset" />
          </mxGeometry>
        </mxCell>
        <mxCell id="HU79ccp8oiayO_ZyE8UI-53" value="" style="endArrow=none;html=1;rounded=0;" edge="1" parent="WIyWlLk6GJQsqaUBKTNV-1" source="HU79ccp8oiayO_ZyE8UI-26" target="HU79ccp8oiayO_ZyE8UI-27">
          <mxGeometry width="50" height="50" relative="1" as="geometry">
            <mxPoint x="-660" y="820" as="sourcePoint" />
            <mxPoint x="-610" y="770" as="targetPoint" />
          </mxGeometry>
        </mxCell>
        <mxCell id="HU79ccp8oiayO_ZyE8UI-132" value="184" style="edgeLabel;html=1;align=center;verticalAlign=middle;resizable=0;points=[];" vertex="1" connectable="0" parent="HU79ccp8oiayO_ZyE8UI-53">
          <mxGeometry x="-0.0948" y="3" relative="1" as="geometry">
            <mxPoint as="offset" />
          </mxGeometry>
        </mxCell>
        <mxCell id="HU79ccp8oiayO_ZyE8UI-54" value="" style="endArrow=none;html=1;rounded=0;" edge="1" parent="WIyWlLk6GJQsqaUBKTNV-1" source="HU79ccp8oiayO_ZyE8UI-25" target="HU79ccp8oiayO_ZyE8UI-26">
          <mxGeometry width="50" height="50" relative="1" as="geometry">
            <mxPoint x="-650" y="830" as="sourcePoint" />
            <mxPoint x="-600" y="780" as="targetPoint" />
          </mxGeometry>
        </mxCell>
        <mxCell id="HU79ccp8oiayO_ZyE8UI-111" value="307" style="edgeLabel;html=1;align=center;verticalAlign=middle;resizable=0;points=[];" vertex="1" connectable="0" parent="HU79ccp8oiayO_ZyE8UI-54">
          <mxGeometry x="-0.0271" y="2" relative="1" as="geometry">
            <mxPoint as="offset" />
          </mxGeometry>
        </mxCell>
        <mxCell id="HU79ccp8oiayO_ZyE8UI-55" value="" style="endArrow=none;html=1;rounded=0;" edge="1" parent="WIyWlLk6GJQsqaUBKTNV-1" source="HU79ccp8oiayO_ZyE8UI-24" target="HU79ccp8oiayO_ZyE8UI-26">
          <mxGeometry width="50" height="50" relative="1" as="geometry">
            <mxPoint x="-640" y="840" as="sourcePoint" />
            <mxPoint x="-590" y="790" as="targetPoint" />
          </mxGeometry>
        </mxCell>
        <mxCell id="HU79ccp8oiayO_ZyE8UI-131" value="175" style="edgeLabel;html=1;align=center;verticalAlign=middle;resizable=0;points=[];" vertex="1" connectable="0" parent="HU79ccp8oiayO_ZyE8UI-55">
          <mxGeometry x="0.0702" y="3" relative="1" as="geometry">
            <mxPoint as="offset" />
          </mxGeometry>
        </mxCell>
        <mxCell id="HU79ccp8oiayO_ZyE8UI-56" value="" style="endArrow=none;html=1;rounded=0;entryX=1;entryY=1;entryDx=0;entryDy=0;exitX=0;exitY=0;exitDx=0;exitDy=0;" edge="1" parent="WIyWlLk6GJQsqaUBKTNV-1" source="HU79ccp8oiayO_ZyE8UI-21" target="HU79ccp8oiayO_ZyE8UI-24">
          <mxGeometry width="50" height="50" relative="1" as="geometry">
            <mxPoint x="-630" y="850" as="sourcePoint" />
            <mxPoint x="-580" y="800" as="targetPoint" />
          </mxGeometry>
        </mxCell>
        <mxCell id="HU79ccp8oiayO_ZyE8UI-129" value="197" style="edgeLabel;html=1;align=center;verticalAlign=middle;resizable=0;points=[];" vertex="1" connectable="0" parent="HU79ccp8oiayO_ZyE8UI-56">
          <mxGeometry x="0.1031" y="-4" relative="1" as="geometry">
            <mxPoint as="offset" />
          </mxGeometry>
        </mxCell>
        <mxCell id="HU79ccp8oiayO_ZyE8UI-57" value="" style="endArrow=none;html=1;rounded=0;" edge="1" parent="WIyWlLk6GJQsqaUBKTNV-1" source="HU79ccp8oiayO_ZyE8UI-17" target="HU79ccp8oiayO_ZyE8UI-24">
          <mxGeometry width="50" height="50" relative="1" as="geometry">
            <mxPoint x="-620" y="860" as="sourcePoint" />
            <mxPoint x="-570" y="810" as="targetPoint" />
          </mxGeometry>
        </mxCell>
        <mxCell id="HU79ccp8oiayO_ZyE8UI-121" value="246" style="edgeLabel;html=1;align=center;verticalAlign=middle;resizable=0;points=[];" vertex="1" connectable="0" parent="HU79ccp8oiayO_ZyE8UI-57">
          <mxGeometry x="-0.2088" y="-1" relative="1" as="geometry">
            <mxPoint as="offset" />
          </mxGeometry>
        </mxCell>
        <mxCell id="HU79ccp8oiayO_ZyE8UI-58" value="" style="endArrow=none;html=1;rounded=0;" edge="1" parent="WIyWlLk6GJQsqaUBKTNV-1" source="HU79ccp8oiayO_ZyE8UI-22" target="HU79ccp8oiayO_ZyE8UI-17">
          <mxGeometry width="50" height="50" relative="1" as="geometry">
            <mxPoint x="-610" y="870" as="sourcePoint" />
            <mxPoint x="-560" y="820" as="targetPoint" />
          </mxGeometry>
        </mxCell>
        <mxCell id="HU79ccp8oiayO_ZyE8UI-115" value="129" style="edgeLabel;html=1;align=center;verticalAlign=middle;resizable=0;points=[];" vertex="1" connectable="0" parent="HU79ccp8oiayO_ZyE8UI-58">
          <mxGeometry x="-0.0772" y="1" relative="1" as="geometry">
            <mxPoint as="offset" />
          </mxGeometry>
        </mxCell>
        <mxCell id="HU79ccp8oiayO_ZyE8UI-59" value="" style="endArrow=none;html=1;rounded=0;" edge="1" parent="WIyWlLk6GJQsqaUBKTNV-1" source="HU79ccp8oiayO_ZyE8UI-17" target="HU79ccp8oiayO_ZyE8UI-21">
          <mxGeometry width="50" height="50" relative="1" as="geometry">
            <mxPoint x="-600" y="880" as="sourcePoint" />
            <mxPoint x="-550" y="830" as="targetPoint" />
          </mxGeometry>
        </mxCell>
        <mxCell id="HU79ccp8oiayO_ZyE8UI-122" value="244" style="edgeLabel;html=1;align=center;verticalAlign=middle;resizable=0;points=[];" vertex="1" connectable="0" parent="HU79ccp8oiayO_ZyE8UI-59">
          <mxGeometry x="-0.0449" relative="1" as="geometry">
            <mxPoint as="offset" />
          </mxGeometry>
        </mxCell>
        <mxCell id="HU79ccp8oiayO_ZyE8UI-60" value="" style="endArrow=none;html=1;rounded=0;" edge="1" parent="WIyWlLk6GJQsqaUBKTNV-1" source="HU79ccp8oiayO_ZyE8UI-24" target="HU79ccp8oiayO_ZyE8UI-27">
          <mxGeometry width="50" height="50" relative="1" as="geometry">
            <mxPoint x="-590" y="890" as="sourcePoint" />
            <mxPoint x="-540" y="840" as="targetPoint" />
          </mxGeometry>
        </mxCell>
        <mxCell id="HU79ccp8oiayO_ZyE8UI-130" value="143" style="edgeLabel;html=1;align=center;verticalAlign=middle;resizable=0;points=[];" vertex="1" connectable="0" parent="HU79ccp8oiayO_ZyE8UI-60">
          <mxGeometry x="-0.0673" y="-1" relative="1" as="geometry">
            <mxPoint x="-1" as="offset" />
          </mxGeometry>
        </mxCell>
        <mxCell id="HU79ccp8oiayO_ZyE8UI-61" value="" style="endArrow=none;html=1;rounded=0;" edge="1" parent="WIyWlLk6GJQsqaUBKTNV-1" source="HU79ccp8oiayO_ZyE8UI-18" target="HU79ccp8oiayO_ZyE8UI-21">
          <mxGeometry width="50" height="50" relative="1" as="geometry">
            <mxPoint x="-580" y="900" as="sourcePoint" />
            <mxPoint x="-530" y="850" as="targetPoint" />
          </mxGeometry>
        </mxCell>
        <mxCell id="HU79ccp8oiayO_ZyE8UI-123" value="321" style="edgeLabel;html=1;align=center;verticalAlign=middle;resizable=0;points=[];" vertex="1" connectable="0" parent="HU79ccp8oiayO_ZyE8UI-61">
          <mxGeometry x="0.074" y="-1" relative="1" as="geometry">
            <mxPoint as="offset" />
          </mxGeometry>
        </mxCell>
        <mxCell id="HU79ccp8oiayO_ZyE8UI-62" value="" style="endArrow=none;html=1;rounded=0;" edge="1" parent="WIyWlLk6GJQsqaUBKTNV-1" source="HU79ccp8oiayO_ZyE8UI-21" target="HU79ccp8oiayO_ZyE8UI-29">
          <mxGeometry width="50" height="50" relative="1" as="geometry">
            <mxPoint x="-570" y="910" as="sourcePoint" />
            <mxPoint x="80" y="580" as="targetPoint" />
          </mxGeometry>
        </mxCell>
        <mxCell id="HU79ccp8oiayO_ZyE8UI-136" value="263" style="edgeLabel;html=1;align=center;verticalAlign=middle;resizable=0;points=[];" vertex="1" connectable="0" parent="HU79ccp8oiayO_ZyE8UI-62">
          <mxGeometry x="0.1515" y="1" relative="1" as="geometry">
            <mxPoint as="offset" />
          </mxGeometry>
        </mxCell>
        <mxCell id="HU79ccp8oiayO_ZyE8UI-63" value="" style="endArrow=none;html=1;rounded=0;" edge="1" parent="WIyWlLk6GJQsqaUBKTNV-1" source="HU79ccp8oiayO_ZyE8UI-27" target="HU79ccp8oiayO_ZyE8UI-29">
          <mxGeometry width="50" height="50" relative="1" as="geometry">
            <mxPoint x="-560" y="920" as="sourcePoint" />
            <mxPoint x="-510" y="870" as="targetPoint" />
          </mxGeometry>
        </mxCell>
        <mxCell id="HU79ccp8oiayO_ZyE8UI-138" value="315" style="edgeLabel;html=1;align=center;verticalAlign=middle;resizable=0;points=[];" vertex="1" connectable="0" parent="HU79ccp8oiayO_ZyE8UI-63">
          <mxGeometry x="-0.0145" y="-1" relative="1" as="geometry">
            <mxPoint as="offset" />
          </mxGeometry>
        </mxCell>
        <mxCell id="HU79ccp8oiayO_ZyE8UI-64" value="" style="endArrow=none;html=1;rounded=0;entryX=0;entryY=1;entryDx=0;entryDy=0;exitX=1;exitY=0;exitDx=0;exitDy=0;" edge="1" parent="WIyWlLk6GJQsqaUBKTNV-1" source="HU79ccp8oiayO_ZyE8UI-21" target="HU79ccp8oiayO_ZyE8UI-27">
          <mxGeometry width="50" height="50" relative="1" as="geometry">
            <mxPoint x="-550" y="930" as="sourcePoint" />
            <mxPoint x="-500" y="880" as="targetPoint" />
          </mxGeometry>
        </mxCell>
        <mxCell id="HU79ccp8oiayO_ZyE8UI-137" value="218" style="edgeLabel;html=1;align=center;verticalAlign=middle;resizable=0;points=[];" vertex="1" connectable="0" parent="HU79ccp8oiayO_ZyE8UI-64">
          <mxGeometry x="0.1581" y="4" relative="1" as="geometry">
            <mxPoint as="offset" />
          </mxGeometry>
        </mxCell>
        <mxCell id="HU79ccp8oiayO_ZyE8UI-65" value="" style="endArrow=none;html=1;rounded=0;" edge="1" parent="WIyWlLk6GJQsqaUBKTNV-1" source="HU79ccp8oiayO_ZyE8UI-28" target="HU79ccp8oiayO_ZyE8UI-21">
          <mxGeometry width="50" height="50" relative="1" as="geometry">
            <mxPoint x="-540" y="940" as="sourcePoint" />
            <mxPoint x="-490" y="890" as="targetPoint" />
          </mxGeometry>
        </mxCell>
        <mxCell id="HU79ccp8oiayO_ZyE8UI-128" value="85" style="edgeLabel;html=1;align=center;verticalAlign=middle;resizable=0;points=[];" vertex="1" connectable="0" parent="HU79ccp8oiayO_ZyE8UI-65">
          <mxGeometry x="0.1438" y="-4" relative="1" as="geometry">
            <mxPoint as="offset" />
          </mxGeometry>
        </mxCell>
        <mxCell id="HU79ccp8oiayO_ZyE8UI-66" value="" style="endArrow=none;html=1;rounded=0;" edge="1" parent="WIyWlLk6GJQsqaUBKTNV-1" source="HU79ccp8oiayO_ZyE8UI-18" target="HU79ccp8oiayO_ZyE8UI-17">
          <mxGeometry width="50" height="50" relative="1" as="geometry">
            <mxPoint x="-530" y="950" as="sourcePoint" />
            <mxPoint x="-480" y="900" as="targetPoint" />
          </mxGeometry>
        </mxCell>
        <mxCell id="HU79ccp8oiayO_ZyE8UI-120" value="181" style="edgeLabel;html=1;align=center;verticalAlign=middle;resizable=0;points=[];" vertex="1" connectable="0" parent="HU79ccp8oiayO_ZyE8UI-66">
          <mxGeometry x="0.1526" y="2" relative="1" as="geometry">
            <mxPoint as="offset" />
          </mxGeometry>
        </mxCell>
        <mxCell id="HU79ccp8oiayO_ZyE8UI-67" value="" style="endArrow=none;html=1;rounded=0;" edge="1" parent="WIyWlLk6GJQsqaUBKTNV-1" source="HU79ccp8oiayO_ZyE8UI-24" target="HU79ccp8oiayO_ZyE8UI-22">
          <mxGeometry width="50" height="50" relative="1" as="geometry">
            <mxPoint x="-520" y="960" as="sourcePoint" />
            <mxPoint x="-470" y="910" as="targetPoint" />
          </mxGeometry>
        </mxCell>
        <mxCell id="HU79ccp8oiayO_ZyE8UI-116" value="239" style="edgeLabel;html=1;align=center;verticalAlign=middle;resizable=0;points=[];" vertex="1" connectable="0" parent="HU79ccp8oiayO_ZyE8UI-67">
          <mxGeometry x="0.1646" y="-3" relative="1" as="geometry">
            <mxPoint x="-1" as="offset" />
          </mxGeometry>
        </mxCell>
        <mxCell id="HU79ccp8oiayO_ZyE8UI-68" value="" style="endArrow=none;html=1;rounded=0;" edge="1" parent="WIyWlLk6GJQsqaUBKTNV-1" source="HU79ccp8oiayO_ZyE8UI-23" target="HU79ccp8oiayO_ZyE8UI-24">
          <mxGeometry width="50" height="50" relative="1" as="geometry">
            <mxPoint x="-250" y="193" as="sourcePoint" />
            <mxPoint x="-370" y="258" as="targetPoint" />
          </mxGeometry>
        </mxCell>
        <mxCell id="HU79ccp8oiayO_ZyE8UI-113" value="341" style="edgeLabel;html=1;align=center;verticalAlign=middle;resizable=0;points=[];" vertex="1" connectable="0" parent="HU79ccp8oiayO_ZyE8UI-68">
          <mxGeometry x="-0.085" y="-1" relative="1" as="geometry">
            <mxPoint as="offset" />
          </mxGeometry>
        </mxCell>
        <mxCell id="HU79ccp8oiayO_ZyE8UI-69" value="" style="endArrow=none;html=1;rounded=0;" edge="1" parent="WIyWlLk6GJQsqaUBKTNV-1" source="HU79ccp8oiayO_ZyE8UI-24" target="HU79ccp8oiayO_ZyE8UI-25">
          <mxGeometry width="50" height="50" relative="1" as="geometry">
            <mxPoint x="-240" y="203" as="sourcePoint" />
            <mxPoint x="-360" y="268" as="targetPoint" />
          </mxGeometry>
        </mxCell>
        <mxCell id="HU79ccp8oiayO_ZyE8UI-112" value="404" style="edgeLabel;html=1;align=center;verticalAlign=middle;resizable=0;points=[];" vertex="1" connectable="0" parent="HU79ccp8oiayO_ZyE8UI-69">
          <mxGeometry x="0.0014" y="1" relative="1" as="geometry">
            <mxPoint as="offset" />
          </mxGeometry>
        </mxCell>
        <mxCell id="HU79ccp8oiayO_ZyE8UI-70" value="" style="endArrow=none;html=1;rounded=0;" edge="1" parent="WIyWlLk6GJQsqaUBKTNV-1" source="HU79ccp8oiayO_ZyE8UI-25" target="HU79ccp8oiayO_ZyE8UI-23">
          <mxGeometry width="50" height="50" relative="1" as="geometry">
            <mxPoint x="-230" y="213" as="sourcePoint" />
            <mxPoint x="-350" y="278" as="targetPoint" />
          </mxGeometry>
        </mxCell>
        <mxCell id="HU79ccp8oiayO_ZyE8UI-110" value="148" style="edgeLabel;html=1;align=center;verticalAlign=middle;resizable=0;points=[];" vertex="1" connectable="0" parent="HU79ccp8oiayO_ZyE8UI-70">
          <mxGeometry x="-0.043" y="-2" relative="1" as="geometry">
            <mxPoint as="offset" />
          </mxGeometry>
        </mxCell>
        <mxCell id="HU79ccp8oiayO_ZyE8UI-71" value="" style="endArrow=none;html=1;rounded=0;" edge="1" parent="WIyWlLk6GJQsqaUBKTNV-1" source="HU79ccp8oiayO_ZyE8UI-23" target="HU79ccp8oiayO_ZyE8UI-22">
          <mxGeometry width="50" height="50" relative="1" as="geometry">
            <mxPoint x="-220" y="223" as="sourcePoint" />
            <mxPoint x="-340" y="288" as="targetPoint" />
          </mxGeometry>
        </mxCell>
        <mxCell id="HU79ccp8oiayO_ZyE8UI-114" value="192" style="edgeLabel;html=1;align=center;verticalAlign=middle;resizable=0;points=[];" vertex="1" connectable="0" parent="HU79ccp8oiayO_ZyE8UI-71">
          <mxGeometry x="-0.1766" y="-4" relative="1" as="geometry">
            <mxPoint y="1" as="offset" />
          </mxGeometry>
        </mxCell>
        <mxCell id="HU79ccp8oiayO_ZyE8UI-72" value="" style="endArrow=none;html=1;rounded=0;" edge="1" parent="WIyWlLk6GJQsqaUBKTNV-1" source="HU79ccp8oiayO_ZyE8UI-16" target="HU79ccp8oiayO_ZyE8UI-23">
          <mxGeometry width="50" height="50" relative="1" as="geometry">
            <mxPoint x="-210" y="233" as="sourcePoint" />
            <mxPoint x="-330" y="298" as="targetPoint" />
          </mxGeometry>
        </mxCell>
        <mxCell id="HU79ccp8oiayO_ZyE8UI-139" value="267" style="edgeLabel;html=1;align=center;verticalAlign=middle;resizable=0;points=[];" vertex="1" connectable="0" parent="HU79ccp8oiayO_ZyE8UI-72">
          <mxGeometry x="0.1812" y="2" relative="1" as="geometry">
            <mxPoint as="offset" />
          </mxGeometry>
        </mxCell>
        <mxCell id="HU79ccp8oiayO_ZyE8UI-73" value="" style="endArrow=none;html=1;rounded=0;" edge="1" parent="WIyWlLk6GJQsqaUBKTNV-1" source="HU79ccp8oiayO_ZyE8UI-31" target="HU79ccp8oiayO_ZyE8UI-16">
          <mxGeometry width="50" height="50" relative="1" as="geometry">
            <mxPoint x="-580" y="260" as="sourcePoint" />
            <mxPoint x="-320" y="308" as="targetPoint" />
          </mxGeometry>
        </mxCell>
        <mxCell id="HU79ccp8oiayO_ZyE8UI-107" value="128" style="edgeLabel;html=1;align=center;verticalAlign=middle;resizable=0;points=[];" vertex="1" connectable="0" parent="HU79ccp8oiayO_ZyE8UI-73">
          <mxGeometry x="-0.2507" y="-3" relative="1" as="geometry">
            <mxPoint x="-1" as="offset" />
          </mxGeometry>
        </mxCell>
        <mxCell id="HU79ccp8oiayO_ZyE8UI-74" value="" style="endArrow=none;html=1;rounded=0;" edge="1" parent="WIyWlLk6GJQsqaUBKTNV-1" source="HU79ccp8oiayO_ZyE8UI-34" target="HU79ccp8oiayO_ZyE8UI-35">
          <mxGeometry width="50" height="50" relative="1" as="geometry">
            <mxPoint x="-190" y="253" as="sourcePoint" />
            <mxPoint x="-310" y="318" as="targetPoint" />
          </mxGeometry>
        </mxCell>
        <mxCell id="HU79ccp8oiayO_ZyE8UI-100" value="172" style="edgeLabel;html=1;align=center;verticalAlign=middle;resizable=0;points=[];" vertex="1" connectable="0" parent="HU79ccp8oiayO_ZyE8UI-74">
          <mxGeometry x="0.1359" y="-3" relative="1" as="geometry">
            <mxPoint as="offset" />
          </mxGeometry>
        </mxCell>
        <mxCell id="HU79ccp8oiayO_ZyE8UI-75" value="" style="endArrow=none;html=1;rounded=0;" edge="1" parent="WIyWlLk6GJQsqaUBKTNV-1" source="HU79ccp8oiayO_ZyE8UI-38" target="HU79ccp8oiayO_ZyE8UI-34">
          <mxGeometry width="50" height="50" relative="1" as="geometry">
            <mxPoint x="-180" y="263" as="sourcePoint" />
            <mxPoint x="-300" y="328" as="targetPoint" />
          </mxGeometry>
        </mxCell>
        <mxCell id="HU79ccp8oiayO_ZyE8UI-101" value="135" style="edgeLabel;html=1;align=center;verticalAlign=middle;resizable=0;points=[];" vertex="1" connectable="0" parent="HU79ccp8oiayO_ZyE8UI-75">
          <mxGeometry x="-0.1238" y="1" relative="1" as="geometry">
            <mxPoint as="offset" />
          </mxGeometry>
        </mxCell>
        <mxCell id="HU79ccp8oiayO_ZyE8UI-76" value="" style="endArrow=none;html=1;rounded=0;" edge="1" parent="WIyWlLk6GJQsqaUBKTNV-1" source="HU79ccp8oiayO_ZyE8UI-38" target="HU79ccp8oiayO_ZyE8UI-39">
          <mxGeometry width="50" height="50" relative="1" as="geometry">
            <mxPoint x="-170" y="273" as="sourcePoint" />
            <mxPoint x="-290" y="338" as="targetPoint" />
          </mxGeometry>
        </mxCell>
        <mxCell id="HU79ccp8oiayO_ZyE8UI-94" value="293" style="edgeLabel;html=1;align=center;verticalAlign=middle;resizable=0;points=[];" vertex="1" connectable="0" parent="HU79ccp8oiayO_ZyE8UI-76">
          <mxGeometry x="0.0647" y="1" relative="1" as="geometry">
            <mxPoint as="offset" />
          </mxGeometry>
        </mxCell>
        <mxCell id="HU79ccp8oiayO_ZyE8UI-77" value="" style="endArrow=none;html=1;rounded=0;" edge="1" parent="WIyWlLk6GJQsqaUBKTNV-1" source="HU79ccp8oiayO_ZyE8UI-39" target="HU79ccp8oiayO_ZyE8UI-37">
          <mxGeometry width="50" height="50" relative="1" as="geometry">
            <mxPoint x="-160" y="283" as="sourcePoint" />
            <mxPoint x="-280" y="348" as="targetPoint" />
          </mxGeometry>
        </mxCell>
        <mxCell id="HU79ccp8oiayO_ZyE8UI-93" value="267" style="edgeLabel;html=1;align=center;verticalAlign=middle;resizable=0;points=[];" vertex="1" connectable="0" parent="HU79ccp8oiayO_ZyE8UI-77">
          <mxGeometry x="-0.0692" y="1" relative="1" as="geometry">
            <mxPoint as="offset" />
          </mxGeometry>
        </mxCell>
        <mxCell id="HU79ccp8oiayO_ZyE8UI-78" value="" style="endArrow=none;html=1;rounded=0;" edge="1" parent="WIyWlLk6GJQsqaUBKTNV-1" source="HU79ccp8oiayO_ZyE8UI-37" target="HU79ccp8oiayO_ZyE8UI-36">
          <mxGeometry width="50" height="50" relative="1" as="geometry">
            <mxPoint x="-150" y="293" as="sourcePoint" />
            <mxPoint x="-270" y="358" as="targetPoint" />
          </mxGeometry>
        </mxCell>
        <mxCell id="HU79ccp8oiayO_ZyE8UI-92" value="151" style="edgeLabel;html=1;align=center;verticalAlign=middle;resizable=0;points=[];" vertex="1" connectable="0" parent="HU79ccp8oiayO_ZyE8UI-78">
          <mxGeometry x="0.0222" relative="1" as="geometry">
            <mxPoint as="offset" />
          </mxGeometry>
        </mxCell>
        <mxCell id="HU79ccp8oiayO_ZyE8UI-79" value="" style="endArrow=none;html=1;rounded=0;" edge="1" parent="WIyWlLk6GJQsqaUBKTNV-1" source="HU79ccp8oiayO_ZyE8UI-38" target="HU79ccp8oiayO_ZyE8UI-37">
          <mxGeometry width="50" height="50" relative="1" as="geometry">
            <mxPoint x="-140" y="303" as="sourcePoint" />
            <mxPoint x="-260" y="368" as="targetPoint" />
          </mxGeometry>
        </mxCell>
        <mxCell id="HU79ccp8oiayO_ZyE8UI-95" value="132" style="edgeLabel;html=1;align=center;verticalAlign=middle;resizable=0;points=[];" vertex="1" connectable="0" parent="HU79ccp8oiayO_ZyE8UI-79">
          <mxGeometry x="0.0111" y="-4" relative="1" as="geometry">
            <mxPoint y="-1" as="offset" />
          </mxGeometry>
        </mxCell>
        <mxCell id="HU79ccp8oiayO_ZyE8UI-80" value="" style="endArrow=none;html=1;rounded=0;" edge="1" parent="WIyWlLk6GJQsqaUBKTNV-1" source="HU79ccp8oiayO_ZyE8UI-32" target="HU79ccp8oiayO_ZyE8UI-36">
          <mxGeometry width="50" height="50" relative="1" as="geometry">
            <mxPoint x="-130" y="313" as="sourcePoint" />
            <mxPoint x="-250" y="378" as="targetPoint" />
          </mxGeometry>
        </mxCell>
        <mxCell id="HU79ccp8oiayO_ZyE8UI-91" value="73" style="edgeLabel;html=1;align=center;verticalAlign=middle;resizable=0;points=[];" vertex="1" connectable="0" parent="HU79ccp8oiayO_ZyE8UI-80">
          <mxGeometry x="0.2386" y="-2" relative="1" as="geometry">
            <mxPoint x="-1" as="offset" />
          </mxGeometry>
        </mxCell>
        <mxCell id="HU79ccp8oiayO_ZyE8UI-81" value="" style="endArrow=none;html=1;rounded=0;" edge="1" parent="WIyWlLk6GJQsqaUBKTNV-1" source="HU79ccp8oiayO_ZyE8UI-31" target="HU79ccp8oiayO_ZyE8UI-32">
          <mxGeometry width="50" height="50" relative="1" as="geometry">
            <mxPoint x="-120" y="323" as="sourcePoint" />
            <mxPoint x="-240" y="388" as="targetPoint" />
          </mxGeometry>
        </mxCell>
        <mxCell id="HU79ccp8oiayO_ZyE8UI-103" value="189" style="edgeLabel;html=1;align=center;verticalAlign=middle;resizable=0;points=[];" vertex="1" connectable="0" parent="HU79ccp8oiayO_ZyE8UI-81">
          <mxGeometry x="0.0693" relative="1" as="geometry">
            <mxPoint as="offset" />
          </mxGeometry>
        </mxCell>
        <mxCell id="HU79ccp8oiayO_ZyE8UI-82" value="" style="endArrow=none;html=1;rounded=0;" edge="1" parent="WIyWlLk6GJQsqaUBKTNV-1" source="HU79ccp8oiayO_ZyE8UI-23" target="HU79ccp8oiayO_ZyE8UI-31">
          <mxGeometry width="50" height="50" relative="1" as="geometry">
            <mxPoint x="-110" y="333" as="sourcePoint" />
            <mxPoint x="-230" y="398" as="targetPoint" />
          </mxGeometry>
        </mxCell>
        <mxCell id="HU79ccp8oiayO_ZyE8UI-109" value="140" style="edgeLabel;html=1;align=center;verticalAlign=middle;resizable=0;points=[];" vertex="1" connectable="0" parent="HU79ccp8oiayO_ZyE8UI-82">
          <mxGeometry x="-0.1" y="-1" relative="1" as="geometry">
            <mxPoint as="offset" />
          </mxGeometry>
        </mxCell>
        <mxCell id="HU79ccp8oiayO_ZyE8UI-83" value="" style="endArrow=none;html=1;rounded=0;" edge="1" parent="WIyWlLk6GJQsqaUBKTNV-1" source="HU79ccp8oiayO_ZyE8UI-16" target="HU79ccp8oiayO_ZyE8UI-33">
          <mxGeometry width="50" height="50" relative="1" as="geometry">
            <mxPoint x="-100" y="343" as="sourcePoint" />
            <mxPoint x="-220" y="408" as="targetPoint" />
          </mxGeometry>
        </mxCell>
        <mxCell id="HU79ccp8oiayO_ZyE8UI-104" value="119" style="edgeLabel;html=1;align=center;verticalAlign=middle;resizable=0;points=[];" vertex="1" connectable="0" parent="HU79ccp8oiayO_ZyE8UI-83">
          <mxGeometry x="0.1508" y="-3" relative="1" as="geometry">
            <mxPoint as="offset" />
          </mxGeometry>
        </mxCell>
        <mxCell id="HU79ccp8oiayO_ZyE8UI-84" value="" style="endArrow=none;html=1;rounded=0;" edge="1" parent="WIyWlLk6GJQsqaUBKTNV-1" source="HU79ccp8oiayO_ZyE8UI-35" target="HU79ccp8oiayO_ZyE8UI-33">
          <mxGeometry width="50" height="50" relative="1" as="geometry">
            <mxPoint x="-90" y="353" as="sourcePoint" />
            <mxPoint x="-210" y="418" as="targetPoint" />
          </mxGeometry>
        </mxCell>
        <mxCell id="HU79ccp8oiayO_ZyE8UI-108" value="112" style="edgeLabel;html=1;align=center;verticalAlign=middle;resizable=0;points=[];" vertex="1" connectable="0" parent="HU79ccp8oiayO_ZyE8UI-84">
          <mxGeometry x="-0.0387" y="-1" relative="1" as="geometry">
            <mxPoint as="offset" />
          </mxGeometry>
        </mxCell>
        <mxCell id="HU79ccp8oiayO_ZyE8UI-85" value="" style="endArrow=none;html=1;rounded=0;" edge="1" parent="WIyWlLk6GJQsqaUBKTNV-1" source="HU79ccp8oiayO_ZyE8UI-35" target="HU79ccp8oiayO_ZyE8UI-38">
          <mxGeometry width="50" height="50" relative="1" as="geometry">
            <mxPoint x="-80" y="363" as="sourcePoint" />
            <mxPoint x="-200" y="428" as="targetPoint" />
          </mxGeometry>
        </mxCell>
        <mxCell id="HU79ccp8oiayO_ZyE8UI-99" value="134" style="edgeLabel;html=1;align=center;verticalAlign=middle;resizable=0;points=[];" vertex="1" connectable="0" parent="HU79ccp8oiayO_ZyE8UI-85">
          <mxGeometry x="-0.3179" y="1" relative="1" as="geometry">
            <mxPoint as="offset" />
          </mxGeometry>
        </mxCell>
        <mxCell id="HU79ccp8oiayO_ZyE8UI-86" value="" style="endArrow=none;html=1;rounded=0;" edge="1" parent="WIyWlLk6GJQsqaUBKTNV-1" source="HU79ccp8oiayO_ZyE8UI-35" target="HU79ccp8oiayO_ZyE8UI-37">
          <mxGeometry width="50" height="50" relative="1" as="geometry">
            <mxPoint x="-70" y="373" as="sourcePoint" />
            <mxPoint x="-190" y="438" as="targetPoint" />
          </mxGeometry>
        </mxCell>
        <mxCell id="HU79ccp8oiayO_ZyE8UI-96" value="132" style="edgeLabel;html=1;align=center;verticalAlign=middle;resizable=0;points=[];" vertex="1" connectable="0" parent="HU79ccp8oiayO_ZyE8UI-86">
          <mxGeometry x="0.1855" y="-2" relative="1" as="geometry">
            <mxPoint as="offset" />
          </mxGeometry>
        </mxCell>
        <mxCell id="HU79ccp8oiayO_ZyE8UI-87" value="" style="endArrow=none;html=1;rounded=0;" edge="1" parent="WIyWlLk6GJQsqaUBKTNV-1" source="HU79ccp8oiayO_ZyE8UI-33" target="HU79ccp8oiayO_ZyE8UI-32">
          <mxGeometry width="50" height="50" relative="1" as="geometry">
            <mxPoint x="-60" y="383" as="sourcePoint" />
            <mxPoint x="-180" y="448" as="targetPoint" />
          </mxGeometry>
        </mxCell>
        <mxCell id="HU79ccp8oiayO_ZyE8UI-102" value="194" style="edgeLabel;html=1;align=center;verticalAlign=middle;resizable=0;points=[];" vertex="1" connectable="0" parent="HU79ccp8oiayO_ZyE8UI-87">
          <mxGeometry x="0.0858" relative="1" as="geometry">
            <mxPoint as="offset" />
          </mxGeometry>
        </mxCell>
        <mxCell id="HU79ccp8oiayO_ZyE8UI-88" value="" style="endArrow=none;html=1;rounded=0;" edge="1" parent="WIyWlLk6GJQsqaUBKTNV-1" source="HU79ccp8oiayO_ZyE8UI-35" target="HU79ccp8oiayO_ZyE8UI-32">
          <mxGeometry width="50" height="50" relative="1" as="geometry">
            <mxPoint x="-50" y="393" as="sourcePoint" />
            <mxPoint x="-170" y="458" as="targetPoint" />
          </mxGeometry>
        </mxCell>
        <mxCell id="HU79ccp8oiayO_ZyE8UI-98" value="159" style="edgeLabel;html=1;align=center;verticalAlign=middle;resizable=0;points=[];" vertex="1" connectable="0" parent="HU79ccp8oiayO_ZyE8UI-88">
          <mxGeometry x="0.0172" y="4" relative="1" as="geometry">
            <mxPoint as="offset" />
          </mxGeometry>
        </mxCell>
        <mxCell id="HU79ccp8oiayO_ZyE8UI-89" value="" style="endArrow=none;html=1;rounded=0;" edge="1" parent="WIyWlLk6GJQsqaUBKTNV-1" source="HU79ccp8oiayO_ZyE8UI-32" target="HU79ccp8oiayO_ZyE8UI-37">
          <mxGeometry width="50" height="50" relative="1" as="geometry">
            <mxPoint x="-40" y="403" as="sourcePoint" />
            <mxPoint x="-160" y="468" as="targetPoint" />
          </mxGeometry>
        </mxCell>
        <mxCell id="HU79ccp8oiayO_ZyE8UI-97" value="211" style="edgeLabel;html=1;align=center;verticalAlign=middle;resizable=0;points=[];" vertex="1" connectable="0" parent="HU79ccp8oiayO_ZyE8UI-89">
          <mxGeometry x="0.2747" y="1" relative="1" as="geometry">
            <mxPoint as="offset" />
          </mxGeometry>
        </mxCell>
      </root>
    </mxGraphModel>
  </diagram>
</mxfile>
